# xmcd
#
# Track frame offsets:
#	150
#	16223
#	27771
#	46828
#	62822
#	77608
#	93552
#	107048
#	119749
#	130480
#
# Disc length: 1916 seconds
#
# Revision: 1
# Processed by: cddbd v1.5.2PL0 Copyright (c) Steve Scherf et al.
# Submitted via: audiograbber 1.83.01
#
DISCID=80077a0a
DTITLE=Various Artist - Country Roads - 80's Hits
DYEAR=2007
DGENRE=Country
TTITLE0=Johnny Lee - Lookin' for Love
TTITLE1=Mickey Gilley - That's All That Matters
TTITLE2=Juice Newton - The Sweetest Thing
TTITLE3=TG Sheppard - Party Time
TTITLE4=Eddie Rabbit - I Love a Rainy Night
TTITLE5=Lee Greenwood - Sombody's Gonna Love You
TTITLE6=Mel NcDaniel - Baby's Got Her Blue Jeans On
TTITLE7=Exile - Give Me One More Chance
TTITLE8=Eddy Raven - I Got Mexico
TTITLE9=Janie Fricke - He's a Heartache
EXTD=
EXTT0=
EXTT1=
EXTT2=
EXTT3=
EXTT4=
EXTT5=
EXTT6=
EXTT7=
EXTT8=
EXTT9=
PLAYORDER=
